<svg width="3223" height="3223" viewBox="0 0 3223 3223" fill="none" xmlns="http://www.w3.org/2000/svg">
<path d="M0 0H3223V3223H0V0Z" fill="#FDF4E9"/>
<path d="M564.686 1975V1254.27H877.189C932.088 1254.27 978.189 1261.66 1015.49 1276.44C1053.03 1291.22 1081.3 1312.1 1100.3 1339.08C1119.54 1366.07 1129.16 1397.86 1129.16 1434.45C1129.16 1460.97 1123.3 1485.13 1111.57 1506.95C1100.07 1528.77 1083.88 1547.07 1063 1561.85C1042.12 1576.39 1017.72 1586.48 989.803 1592.11V1599.15C1020.77 1600.33 1048.92 1608.18 1074.26 1622.73C1099.6 1637.04 1119.78 1656.87 1134.79 1682.2C1149.81 1707.31 1157.32 1736.87 1157.32 1770.89C1157.32 1810.3 1146.99 1845.38 1126.35 1876.11C1105.94 1906.85 1076.84 1931.01 1039.07 1948.61C1001.3 1966.2 956.253 1975 903.935 1975H564.686ZM760.352 1818.75H851.851C884.696 1818.75 909.331 1812.65 925.754 1800.45C942.176 1788.01 950.388 1769.71 950.388 1745.55C950.388 1728.66 946.517 1714.35 938.774 1702.62C931.032 1690.89 920.006 1681.97 905.694 1675.87C891.618 1669.77 874.608 1666.72 854.666 1666.72H760.352V1818.75ZM760.352 1545.66H840.589C857.716 1545.66 872.849 1542.96 885.987 1537.57C899.125 1532.17 909.331 1524.43 916.604 1514.34C924.111 1504.02 927.865 1491.47 927.865 1476.68C927.865 1454.4 919.888 1437.39 903.935 1425.66C887.981 1413.69 867.804 1407.71 843.405 1407.71H760.352V1545.66ZM1840.05 1524.55H1641.57C1640.16 1508.12 1636.41 1493.22 1630.31 1479.85C1624.44 1466.48 1616.23 1454.98 1605.67 1445.36C1595.35 1435.51 1582.8 1428 1568.02 1422.84C1553.24 1417.45 1536.46 1414.75 1517.69 1414.75C1484.85 1414.75 1457.05 1422.72 1434.29 1438.68C1411.77 1454.63 1394.64 1477.51 1382.91 1507.3C1371.41 1537.1 1365.66 1572.88 1365.66 1614.64C1365.66 1658.74 1371.53 1695.69 1383.26 1725.49C1395.23 1755.05 1412.47 1777.34 1434.99 1792.35C1457.52 1807.14 1484.61 1814.53 1516.29 1814.53C1534.35 1814.53 1550.54 1812.3 1564.85 1807.84C1579.16 1803.15 1591.6 1796.46 1602.15 1787.78C1612.71 1779.1 1621.27 1768.66 1627.84 1756.46C1634.65 1744.02 1639.22 1730.07 1641.57 1714.58L1840.05 1715.99C1837.7 1746.49 1829.14 1777.57 1814.36 1809.25C1799.58 1840.68 1778.58 1869.78 1751.37 1896.52C1724.39 1923.03 1690.95 1944.38 1651.07 1960.57C1611.19 1976.76 1564.85 1984.85 1512.06 1984.85C1445.9 1984.85 1386.55 1970.66 1333.99 1942.27C1281.67 1913.88 1240.26 1872.12 1209.77 1816.99C1179.5 1761.86 1164.37 1694.4 1164.37 1614.64C1164.37 1534.4 1179.85 1466.83 1210.82 1411.93C1241.79 1356.8 1283.55 1315.15 1336.1 1287C1388.66 1258.61 1447.31 1244.42 1512.06 1244.42C1557.58 1244.42 1599.46 1250.64 1637.7 1263.07C1675.94 1275.51 1709.49 1293.69 1738.35 1317.62C1767.2 1341.31 1790.43 1370.52 1808.03 1405.25C1825.62 1439.97 1836.3 1479.73 1840.05 1524.55Z" fill="#1A365D"/>
<path d="M1910.98 1685.23L2041.66 1554.55L2190.81 1700.85L2540.24 1352.84L2670.92 1483.52L2190.81 1960.8L1910.98 1685.23Z" fill="#003399"/>
</svg>
